<svg xmlns="http://www.w3.org/2000/svg" viewBox="0 0 173.59 78.98">
    <g id="Livello_2" data-name="Livello 2">
        <g id="Livello_1-2" data-name="Livello 1">
            <rect width="12.06" height="54.42" />
            <path
                d="M19.55,15.27a6.51,6.51,0,0,1-4.82-2,6.53,6.53,0,0,1-2-4.77,6.64,6.64,0,0,1,2-4.8A6.69,6.69,0,0,1,23,2.59a7.27,7.27,0,0,1,2.49,2.47,6.39,6.39,0,0,1,.95,3.44,6.46,6.46,0,0,1-2,4.77A6.61,6.61,0,0,1,19.55,15.27Z" />
            <rect x="13.38" y="21.95" width="12.02" height="32.47" />
            <path
                d="M49.61,21a16.86,16.86,0,0,1,6.65,1.38,12.39,12.39,0,0,1,5.34,4.38,13.4,13.4,0,0,1,2.09,7.85V54.42H51.63V36.58A7.37,7.37,0,0,0,50,31.34a5.73,5.73,0,0,0-4.35-1.76,6.4,6.4,0,0,0-3.34.93,7.05,7.05,0,0,0-2.53,2.61,7.55,7.55,0,0,0-1,3.86V54.42h-12V22h12v4.78a6.62,6.62,0,0,1,2-2.63,12.69,12.69,0,0,1,3.83-2.21A13.87,13.87,0,0,1,49.61,21Z" />
            <polygon
                points="88.35 21.95 101.96 21.95 86.65 37.45 103.54 54.42 89.62 54.42 77.08 41.37 77.08 54.42 65.06 54.42 65.06 0 77.08 0 77.08 33.26 88.35 21.95" />
            <path
                d="M131,28.69a13.64,13.64,0,0,0-6-5.75A20.35,20.35,0,0,0,115.8,21a19.11,19.11,0,0,0-9.53,2.23,15.05,15.05,0,0,0-6,6,17.62,17.62,0,0,0-2.05,8.54,18.14,18.14,0,0,0,2.37,9.61,15.26,15.26,0,0,0,6.56,5.93,21.85,21.85,0,0,0,9.61,2,34.49,34.49,0,0,0,7.4-.66,17.46,17.46,0,0,0,4.7-1.64,11.54,11.54,0,0,0,2.81-2L127,43.58a9.05,9.05,0,0,1-2.11,1.49,14,14,0,0,1-3.21,1.18,16.83,16.83,0,0,1-4.13.46,10.39,10.39,0,0,1-4.19-.76,6.33,6.33,0,0,1-2.73-2.11,5.85,5.85,0,0,1-1.11-3.11H133a6.64,6.64,0,0,0,.08-1.28V38.2A19.56,19.56,0,0,0,131,28.69Zm-21.24,5.76a6.25,6.25,0,0,1,.83-2.61,5.63,5.63,0,0,1,2.06-2A6.48,6.48,0,0,1,116,29a5.9,5.9,0,0,1,3.24.81,5.16,5.16,0,0,1,1.9,2.07,5.87,5.87,0,0,1,.67,2.54Z" />
            <path
                d="M143.69,54.42h-12V22h12v5h-.19A7.76,7.76,0,0,1,145,24.66a11.21,11.21,0,0,1,3.44-2.53A11.74,11.74,0,0,1,153.9,21a12,12,0,0,1,4.15.69A11.36,11.36,0,0,1,160.82,23l-4.67,9.76a6.55,6.55,0,0,0-2-1.4,7.47,7.47,0,0,0-3.5-.73,6.21,6.21,0,0,0-4,1.23,7.23,7.23,0,0,0-2.29,3,8.49,8.49,0,0,0-.74,3.28Z" />
            <path
                d="M166.39,55.37a7.24,7.24,0,0,1-7.16-7.16,7,7,0,0,1,2.12-5.12,7.12,7.12,0,0,1,10.14,0,7,7,0,0,1,2.1,5.12,7.2,7.2,0,0,1-7.2,7.16Z" />
            <path
                d="M38.39,66.59a.76.76,0,0,1,.56.22.78.78,0,0,1,.23.58v8.15a.78.78,0,0,1-.23.57.81.81,0,0,1-1.13,0,.77.77,0,0,1-.22-.57v-.65l.29.12a.7.7,0,0,1-.19.42,2.57,2.57,0,0,1-.5.48,3,3,0,0,1-.75.4,2.52,2.52,0,0,1-.93.17A3,3,0,0,1,33.88,76a3.21,3.21,0,0,1-1.17-1.3,3.93,3.93,0,0,1-.43-1.89,4,4,0,0,1,.43-1.9,3.36,3.36,0,0,1,1.15-1.29,2.86,2.86,0,0,1,1.61-.47,3,3,0,0,1,1.05.17,3.35,3.35,0,0,1,.82.43,2.75,2.75,0,0,1,.54.54.82.82,0,0,1,.19.45l-.47.18V67.39a.77.77,0,0,1,.22-.57A.78.78,0,0,1,38.39,66.59ZM35.72,75a1.75,1.75,0,0,0,1-.29,1.91,1.91,0,0,0,.68-.78,2.6,2.6,0,0,0,.24-1.13,2.57,2.57,0,0,0-.24-1.13,1.88,1.88,0,0,0-.68-.79,1.75,1.75,0,0,0-1-.29,1.7,1.7,0,0,0-1,.29,1.88,1.88,0,0,0-.68.79,2.57,2.57,0,0,0-.24,1.13A2.6,2.6,0,0,0,34,74a1.91,1.91,0,0,0,.68.78A1.7,1.7,0,0,0,35.72,75Z" />
            <path
                d="M50.17,68.43a1.08,1.08,0,0,1-.63-.14.63.63,0,0,1-.19-.51v-.26a.59.59,0,0,1,.21-.52,1.14,1.14,0,0,1,.62-.14,1.05,1.05,0,0,1,.65.15.63.63,0,0,1,.19.51v.26a.58.58,0,0,1-.2.51A1.1,1.1,0,0,1,50.17,68.43ZM51,75.54a.78.78,0,0,1-.23.57.81.81,0,0,1-1.13,0,.77.77,0,0,1-.22-.57V70.09a.78.78,0,0,1,.22-.57.81.81,0,0,1,1.13,0,.79.79,0,0,1,.23.57Z" />
            <path
                d="M64.12,69.16a2.71,2.71,0,0,1,1,.17,2.89,2.89,0,0,1,.8.43,2.67,2.67,0,0,1,.53.54.82.82,0,0,1,.19.45l-.34.18V70a.78.78,0,0,1,.22-.57.78.78,0,0,1,.57-.23.73.73,0,0,1,.56.22.76.76,0,0,1,.23.58v5.87a3,3,0,0,1-.5,1.84,2.78,2.78,0,0,1-1.29,1,4.74,4.74,0,0,1-1.73.31,4.09,4.09,0,0,1-.69-.07c-.28,0-.54-.09-.8-.15a4.14,4.14,0,0,1-.58-.18,1.17,1.17,0,0,1-.55-.42.67.67,0,0,1-.06-.55.8.8,0,0,1,.39-.52.66.66,0,0,1,.55,0l.44.16c.2.08.42.15.66.22a2.33,2.33,0,0,0,.64.1,2.2,2.2,0,0,0,1.46-.4A1.33,1.33,0,0,0,66.31,76V74.89l.16.12a.74.74,0,0,1-.18.42,2.49,2.49,0,0,1-.49.48,2.82,2.82,0,0,1-.73.4,2.44,2.44,0,0,1-.9.17A3.1,3.1,0,0,1,62.49,76a3.19,3.19,0,0,1-1.19-1.3,3.94,3.94,0,0,1-.44-1.89,4,4,0,0,1,.44-1.9,3.32,3.32,0,0,1,1.17-1.29A2.94,2.94,0,0,1,64.12,69.16Zm.25,1.45a1.81,1.81,0,0,0-1,.29,1.92,1.92,0,0,0-.7.79,2.44,2.44,0,0,0-.25,1.13A2.47,2.47,0,0,0,62.63,74a2,2,0,0,0,.7.78,2,2,0,0,0,2.09,0,1.89,1.89,0,0,0,.7-.78,2.47,2.47,0,0,0,.25-1.13,2.44,2.44,0,0,0-.25-1.13,1.86,1.86,0,0,0-.7-.79A1.82,1.82,0,0,0,64.37,70.61Z" />
            <path
                d="M78.88,68.43a1.11,1.11,0,0,1-.63-.14.63.63,0,0,1-.18-.51v-.26a.59.59,0,0,1,.2-.52,1.18,1.18,0,0,1,.63-.14,1,1,0,0,1,.64.15.6.6,0,0,1,.19.51v.26a.58.58,0,0,1-.2.51A1.1,1.1,0,0,1,78.88,68.43Zm.81,7.11a.78.78,0,0,1-.23.57.7.7,0,0,1-.56.23.74.74,0,0,1-.57-.23.77.77,0,0,1-.22-.57V70.09a.78.78,0,0,1,.22-.57.78.78,0,0,1,.57-.23.74.74,0,0,1,.56.23.79.79,0,0,1,.23.57Z" />
            <path
                d="M90,69.42h3.13a.69.69,0,0,1,.52.21.69.69,0,0,1,.22.53.67.67,0,0,1-.22.51.72.72,0,0,1-.52.2H90a.7.7,0,0,1-.52-.21.73.73,0,0,1-.22-.53.67.67,0,0,1,.22-.5A.7.7,0,0,1,90,69.42Zm1.41-1.64A.73.73,0,0,1,92,68a.81.81,0,0,1,.22.58v5.86a.68.68,0,0,0,.07.31.41.41,0,0,0,.2.17.65.65,0,0,0,.27,0,.68.68,0,0,0,.29-.06.75.75,0,0,1,.31-.06.45.45,0,0,1,.33.17.73.73,0,0,1,.16.48.72.72,0,0,1-.41.61,1.73,1.73,0,0,1-.86.23,4.45,4.45,0,0,1-.61,0,1.64,1.64,0,0,1-.64-.23,1.44,1.44,0,0,1-.49-.54,2.22,2.22,0,0,1-.2-1V68.58a.82.82,0,0,1,.23-.58A.8.8,0,0,1,91.39,67.78Z" />
            <path
                d="M109.67,69.16a.76.76,0,0,1,.56.22.8.8,0,0,1,.23.58v5.58a.78.78,0,0,1-.23.57.81.81,0,0,1-1.13,0,.77.77,0,0,1-.22-.57v-.65l.29.12a.7.7,0,0,1-.19.42,2.57,2.57,0,0,1-.5.48,3.06,3.06,0,0,1-.74.4,2.62,2.62,0,0,1-.94.17,3,3,0,0,1-1.64-.47,3.21,3.21,0,0,1-1.17-1.3,4.05,4.05,0,0,1-.43-1.89,4.12,4.12,0,0,1,.43-1.9,3.36,3.36,0,0,1,1.15-1.29,2.86,2.86,0,0,1,1.61-.47,3,3,0,0,1,1,.17,3.18,3.18,0,0,1,.82.43,2.75,2.75,0,0,1,.54.54.82.82,0,0,1,.19.45l-.47.18V70a.78.78,0,0,1,.22-.57A.78.78,0,0,1,109.67,69.16ZM107,75a1.75,1.75,0,0,0,1-.29,1.91,1.91,0,0,0,.68-.78,2.6,2.6,0,0,0,.24-1.13,2.57,2.57,0,0,0-.24-1.13,1.88,1.88,0,0,0-.68-.79,1.75,1.75,0,0,0-1-.29,1.7,1.7,0,0,0-1,.29,2,2,0,0,0-.68.79,2.57,2.57,0,0,0-.24,1.13,2.6,2.6,0,0,0,.24,1.13,2,2,0,0,0,.68.78A1.7,1.7,0,0,0,107,75Z" />
            <path
                d="M122.48,75.54a.8.8,0,0,1-1.36.57.77.77,0,0,1-.22-.57V67.39a.78.78,0,0,1,.23-.57.79.79,0,0,1,.57-.23.74.74,0,0,1,.56.23.77.77,0,0,1,.22.57Z" />
        </g>
    </g>
</svg>